<?xml version="1.0" standalone="no"?>
<!DOCTYPE svg PUBLIC "-//W3C//DTD SVG 20010904//EN"
 "http://www.w3.org/TR/2001/REC-SVG-20010904/DTD/svg10.dtd">
<svg version="1.0" xmlns="http://www.w3.org/2000/svg"
 width="302.000000pt" height="255.000000pt" viewBox="0 0 302.000000 255.000000"
 preserveAspectRatio="xMidYMid meet">

<g transform="translate(0.000000,255.000000) scale(0.100000,-0.100000)"
fill="#000000" stroke="none">
<path d="M0 1275 l0 -1275 1510 0 1510 0 0 1275 0 1275 -1510 0 -1510 0 0
-1275z m1523 785 c-4 -84 20 -306 43 -391 22 -85 72 -215 94 -249 14 -21 23
-5 55 95 30 97 41 152 54 285 15 138 12 146 -51 153 -28 4 -53 8 -55 11 -3 3
-2 32 2 66 l7 61 54 -7 c30 -3 80 -11 112 -18 l57 -11 8 -65 c23 -192 -36
-497 -135 -695 -63 -125 -245 -371 -268 -363 -5 2 -36 34 -70 73 -151 171
-258 385 -306 608 -21 102 -34 279 -26 366 8 82 5 79 95 94 l37 6 0 -147 c0
-294 58 -494 207 -719 30 -46 58 -83 63 -83 4 0 29 31 54 68 l47 68 -46 79
c-55 97 -99 209 -125 318 -37 154 -54 420 -27 431 6 2 37 4 67 3 l55 -2 -2
-35z m-516 -167 c1 -118 18 -278 38 -343 4 -11 -12 -22 -56 -39 -33 -13 -62
-22 -64 -20 -7 7 -34 155 -40 219 -9 97 -13 121 -19 127 -2 3 -30 -7 -62 -21
l-57 -26 6 -78 c18 -227 120 -521 254 -731 99 -155 266 -334 415 -445 l77 -58
55 39 c31 21 56 40 56 43 -1 3 -29 24 -63 47 -154 104 -303 255 -413 420 -52
78 -164 298 -164 321 0 5 26 21 58 35 l57 25 9 -22 c96 -222 184 -355 331
-501 111 -111 238 -206 359 -267 l61 -31 -65 -58 c-66 -59 -188 -151 -247
-184 -40 -23 -47 -20 -183 81 -434 322 -695 800 -736 1349 l-7 90 49 27 c75
40 311 134 345 137 3 1 6 -61 6 -136z m1108 100 c39 -14 117 -47 174 -75 l104
-50 -6 -96 c-7 -116 -31 -259 -61 -362 -20 -73 -22 -75 -58 -84 -43 -11 -44
-16 -23 -77 l16 -44 -59 -120 c-32 -66 -85 -158 -117 -205 -66 -98 -165 -220
-177 -220 -28 0 -232 121 -317 189 l-25 19 63 68 c122 133 236 328 295 504 48
144 68 273 70 437 l1 152 25 -6 c14 -3 57 -17 95 -30z"/>
<path d="M2125 1778 c-3 -35 -13 -103 -21 -153 -9 -49 -18 -103 -20 -120 -5
-28 -2 -32 51 -59 30 -16 57 -27 59 -25 8 9 45 199 51 259 3 36 8 75 10 86 4
18 -5 26 -54 48 -32 14 -61 26 -64 26 -3 0 -8 -28 -12 -62z"/>
<path d="M2000 1273 c-41 -99 -96 -195 -173 -302 -67 -94 -68 -89 15 -132 l37
-19 29 38 c58 74 135 199 182 297 67 142 67 131 12 165 -26 16 -52 30 -58 30
-6 0 -26 -35 -44 -77z"/>
</g>
</svg>
